<svg width="16" height="17" viewBox="0 0 16 17" fill="none" xmlns="http://www.w3.org/2000/svg">
<path id="Vector" d="M7.21875 0.345703C7.46875 0.241536 7.72917 0.189453 8 0.189453C8.25 0.189453 8.51042 0.241536 8.78125 0.345703L15.3125 3.1582C15.75 3.36654 15.9792 3.71029 16 4.18945C15.9792 4.66862 15.75 5.01237 15.3125 5.2207L8.78125 8.0332C8.51042 8.13737 8.25 8.18945 8 8.18945C7.72917 8.18945 7.46875 8.13737 7.21875 8.0332L0.6875 5.2207C0.25 5.01237 0.0208333 4.66862 0 4.18945C0.0208333 3.71029 0.25 3.36654 0.6875 3.1582L7.21875 0.345703ZM8 1.68945C7.91667 1.68945 7.85417 1.69987 7.8125 1.7207L2.0625 4.18945L7.8125 6.6582C7.85417 6.67904 7.91667 6.68945 8 6.68945C8.0625 6.68945 8.125 6.67904 8.1875 6.6582L13.9375 4.18945L8.1875 1.7207C8.125 1.69987 8.0625 1.68945 8 1.68945ZM7.8125 10.6582C7.85417 10.679 7.91667 10.6895 8 10.6895C8.0625 10.6895 8.125 10.679 8.1875 10.6582L14.125 8.0957C13.9792 7.86654 13.9688 7.61654 14.0938 7.3457C14.3229 6.9707 14.6562 6.86654 15.0938 7.0332L15.375 7.1582C15.7708 7.38737 15.9792 7.73112 16 8.18945C15.9792 8.66862 15.75 9.01237 15.3125 9.2207L8.78125 12.0332C8.51042 12.1374 8.25 12.1895 8 12.1895C7.72917 12.1895 7.46875 12.1374 7.21875 12.0332L0.71875 9.25195C0.260417 9.02279 0.0208333 8.6582 0 8.1582C0 7.76237 0.166667 7.43945 0.5 7.18945L0.8125 6.9707C1.20833 6.74154 1.5625 6.80404 1.875 7.1582C2.0625 7.4707 2.03125 7.7832 1.78125 8.0957L7.8125 10.6582ZM1.875 11.1582C2.0625 11.4707 2.03125 11.7832 1.78125 12.0957L7.8125 14.6582C7.85417 14.679 7.91667 14.6895 8 14.6895C8.0625 14.6895 8.125 14.679 8.1875 14.6582L14.125 12.0957C13.9792 11.8665 13.9688 11.6165 14.0938 11.3457C14.3229 10.9707 14.6562 10.8665 15.0938 11.0332L15.375 11.1582C15.7708 11.3874 15.9792 11.7311 16 12.1895C15.9792 12.6686 15.75 13.0124 15.3125 13.2207L8.78125 16.0332C8.51042 16.1374 8.25 16.1895 8 16.1895C7.72917 16.1895 7.46875 16.1374 7.21875 16.0332L0.71875 13.252C0.260417 13.0228 0.0208333 12.6582 0 12.1582C0 11.7624 0.166667 11.4395 0.5 11.1895L0.8125 10.9707C1.20833 10.7415 1.5625 10.804 1.875 11.1582Z" fill="white"/>
</svg>
